{
  "accessors": [
    {
      "bufferView": 2,
      "componentType": 5126,
      "count": 240,
      "max": [
        34.582679748535156,
        34.582679748535156,
        32.848258972167969
      ],
      "min": [
        0,
        0,
        0
      ],
      "type": "VEC3"
    },
    {
      "bufferView": 2,
      "byteOffset": 2880,
      "componentType": 5126,
      "count": 240,
      "max": [
        0.96951603889465332,
        0.96951603889465332,
        1
      ],
      "min": [
        -0.96951603889465332,
        -0.96951603889465332,
        -0.97014254331588745
      ],
      "type": "VEC3"
    },
    {
      "bufferView": 3,
      "componentType": 5126,
      "count": 240,
      "max": [
        0.9695160984992981,
        0.9695160984992981,
        5.1142048818064723e-08,
        1
      ],
      "min": [
        -0.96951603889465332,
        -0.96951603889465332,
        -1.3916448438067164e-07,
        -1
      ],
      "type": "VEC4"
    },
    {
      "bufferView": 1,
      "componentType": 5126,
      "count": 240,
      "max": [
        1,
        0.98517197370529175
      ],
      "min": [
        -1.2659939718119985e-15,
        -1.872773964511497e-15
      ],
      "type": "VEC2"
    },
    {
      "bufferView": 0,
      "componentType": 5125,
      "count": 240,
      "max": [
        239
      ],
      "min": [
        0
      ],
      "type": "SCALAR"
    },
    {
      "bufferView": 2,
      "byteOffset": 5760,
      "componentType": 5126,
      "count": 240,
      "max": [
        34.582679748535156,
        34.582679748535156,
        32.848258972167969
      ],
      "min": [
        0,
        0,
        0
      ],
      "type": "VEC3"
    },
    {
      "bufferView": 2,
      "byteOffset": 8640,
      "componentType": 5126,
      "count": 240,
      "max": [
        0.96951603889465332,
        0.96951603889465332,
        1
      ],
      "min": [
        -0.96951603889465332,
        -0.96951603889465332,
        -0.97014254331588745
      ],
      "type": "VEC3"
    },
    {
      "bufferView": 3,
      "byteOffset": 3840,
      "componentType": 5126,
      "count": 240,
      "max": [
        0.9695160984992981,
        0.9695160984992981,
        5.1142048818064723e-08,
        1
      ],
      "min": [
        -0.96951603889465332,
        -0.96951603889465332,
        -1.3916448438067164e-07,
        -1
      ],
      "type": "VEC4"
    },
    {
      "bufferView": 1,
      "byteOffset": 1920,
      "componentType": 5126,
      "count": 240,
      "max": [
        1,
        0.98517197370529175
      ],
      "min": [
        -1.2659939718119985e-15,
        -1.872773964511497e-15
      ],
      "type": "VEC2"
    },
    {
      "bufferView": 0,
      "byteOffset": 960,
      "componentType": 5125,
      "count": 240,
      "max": [
        239
      ],
      "min": [
        0
      ],
      "type": "SCALAR"
    },
    {
      "bufferView": 2,
      "byteOffset": 11520,
      "componentType": 5126,
      "count": 240,
      "max": [
        35.684230804443359,
        35.684230804443359,
        36.780628204345703
      ],
      "min": [
        -0.51058298349380493,
        0,
        0
      ],
      "type": "VEC3"
    },
    {
      "bufferView": 2,
      "byteOffset": 14400,
      "componentType": 5126,
      "count": 240,
      "max": [
        0.96986162662506104,
        0.99030280113220215,
        0.89442729949951172
      ],
      "min": [
        -0.96986162662506104,
        -0.99030280113220215,
        -0.89442729949951172
      ],
      "type": "VEC3"
    },
    {
      "bufferView": 3,
      "byteOffset": 7680,
      "componentType": 5126,
      "count": 240,
      "max": [
        0.97740852832794189,
        0.98100382089614868,
        5.7527614671926131e-07,
        1
      ],
      "min": [
        -0.99814188480377197,
        -0.97982966899871826,
        -8.8454424940209719e-07,
        -1
      ],
      "type": "VEC4"
    },
    {
      "bufferView": 1,
      "byteOffset": 3840,
      "componentType": 5126,
      "count": 240,
      "max": [
        1.014307975769043,
        0.98174452781677246
      ],
      "min": [
        -2.3203659520599877e-14,
        -1.0981870040820282e-15
      ],
      "type": "VEC2"
    },
    {
      "bufferView": 0,
      "byteOffset": 1920,
      "componentType": 5125,
      "count": 240,
      "max": [
        239
      ],
      "min": [
        0
      ],
      "type": "SCALAR"
    },
    {
      "bufferView": 2,
      "byteOffset": 17280,
      "componentType": 5126,
      "count": 240,
      "max": [
        34.582679748535156,
        34.582679748535156,
        32.848258972167969
      ],
      "min": [
        0,
        0,
        0
      ],
      "type": "VEC3"
    },
    {
      "bufferView": 2,
      "byteOffset": 20160,
      "componentType": 5126,
      "count": 240,
      "max": [
        0.96951603889465332,
        0.96951603889465332,
        1
      ],
      "min": [
        -0.96951603889465332,
        -0.96951603889465332,
        -0.97014254331588745
      ],
      "type": "VEC3"
    },
    {
      "bufferView": 3,
      "byteOffset": 11520,
      "componentType": 5126,
      "count": 240,
      "max": [
        0.9695160984992981,
        0.9695160984992981,
        5.1142048818064723e-08,
        1
      ],
      "min": [
        -0.96951603889465332,
        -0.96951603889465332,
        -1.3916448438067164e-07,
        -1
      ],
      "type": "VEC4"
    },
    {
      "bufferView": 1,
      "byteOffset": 5760,
      "componentType": 5126,
      "count": 240,
      "max": [
        1,
        0.98517197370529175
      ],
      "min": [
        -1.2659939718119985e-15,
        -1.872773964511497e-15
      ],
      "type": "VEC2"
    },
    {
      "bufferView": 0,
      "byteOffset": 2880,
      "componentType": 5125,
      "count": 240,
      "max": [
        239
      ],
      "min": [
        0
      ],
      "type": "SCALAR"
    },
    {
      "bufferView": 2,
      "byteOffset": 23040,
      "componentType": 5126,
      "count": 240,
      "max": [
        35.684230804443359,
        35.684230804443359,
        36.780628204345703
      ],
      "min": [
        -0.51058298349380493,
        0,
        0
      ],
      "type": "VEC3"
    },
    {
      "bufferView": 2,
      "byteOffset": 25920,
      "componentType": 5126,
      "count": 240,
      "max": [
        0.96986162662506104,
        0.99030280113220215,
        0.89442729949951172
      ],
      "min": [
        -0.96986162662506104,
        -0.99030280113220215,
        -0.89442729949951172
      ],
      "type": "VEC3"
    },
    {
      "bufferView": 3,
      "byteOffset": 15360,
      "componentType": 5126,
      "count": 240,
      "max": [
        0.97740852832794189,
        0.98100382089614868,
        5.7527614671926131e-07,
        1
      ],
      "min": [
        -0.99814188480377197,
        -0.97982966899871826,
        -8.8454424940209719e-07,
        -1
      ],
      "type": "VEC4"
    },
    {
      "bufferView": 1,
      "byteOffset": 7680,
      "componentType": 5126,
      "count": 240,
      "max": [
        1.014307975769043,
        0.98174452781677246
      ],
      "min": [
        -2.3203659520599877e-14,
        -1.0981870040820282e-15
      ],
      "type": "VEC2"
    },
    {
      "bufferView": 0,
      "byteOffset": 3840,
      "componentType": 5125,
      "count": 240,
      "max": [
        239
      ],
      "min": [
        0
      ],
      "type": "SCALAR"
    }
  ],
  "asset": {
    "extras": {
      "author": "XXS (https://sketchfab.com/serpent)",
      "license": "CC-BY-4.0 (http://creativecommons.org/licenses/by/4.0/)",
      "source": "https://sketchfab.com/3d-models/grass-6d418b9a945e4bee9e9ab7de954d76d1",
      "title": "Grass"
    },
    "generator": "Sketchfab-4.47.0",
    "version": "2.0"
  },
  "bufferViews": [
    {
      "buffer": 0,
      "byteLength": 4800,
      "byteOffset": 0,
      "name": "floatBufferViews",
      "target": 34963
    },
    {
      "buffer": 0,
      "byteLength": 9600,
      "byteOffset": 4800,
      "byteStride": 8,
      "name": "floatBufferViews",
      "target": 34962
    },
    {
      "buffer": 0,
      "byteLength": 28800,
      "byteOffset": 14400,
      "byteStride": 12,
      "name": "floatBufferViews",
      "target": 34962
    },
    {
      "buffer": 0,
      "byteLength": 19200,
      "byteOffset": 43200,
      "byteStride": 16,
      "name": "floatBufferViews",
      "target": 34962
    }
  ],
  "buffers": [
    {
      "byteLength": 62400,
      "uri": "scene.bin"
    }
  ],
  "images": [
    {
      "uri": "textures/grass_01_baseColor.png"
    },
    {
      "uri": "textures/grass_02_baseColor.png"
    }
  ],
  "materials": [
    {
      "alphaMode": "BLEND",
      "doubleSided": true,
      "emissiveFactor": [
        0,
        0,
        0
      ],
      "name": "grass_02",
      "pbrMetallicRoughness": {
        "baseColorFactor": [
          1,
          1,
          1,
          1
        ],
        "baseColorTexture": {
          "index": 1,
          "texCoord": 0
        },
        "metallicFactor": 0,
        "roughnessFactor": 1
      }
    },
    {
      "alphaMode": "BLEND",
      "doubleSided": true,
      "emissiveFactor": [
        0,
        0,
        0
      ],
      "name": "grass_01",
      "pbrMetallicRoughness": {
        "baseColorFactor": [
          1,
          1,
          1,
          1
        ],
        "baseColorTexture": {
          "index": 0,
          "texCoord": 0
        },
        "metallicFactor": 0,
        "roughnessFactor": 1
      }
    }
  ],
  "meshes": [
    {
      "name": "group_4_grass_02_0",
      "primitives": [
        {
          "attributes": {
            "NORMAL": 1,
            "POSITION": 0,
            "TANGENT": 2,
            "TEXCOORD_0": 3
          },
          "indices": 4,
          "material": 0,
          "mode": 4
        }
      ]
    },
    {
      "name": "group_3_grass_02_0",
      "primitives": [
        {
          "attributes": {
            "NORMAL": 6,
            "POSITION": 5,
            "TANGENT": 7,
            "TEXCOORD_0": 8
          },
          "indices": 9,
          "material": 0,
          "mode": 4
        }
      ]
    },
    {
      "name": "group_2_grass_01_0",
      "primitives": [
        {
          "attributes": {
            "NORMAL": 11,
            "POSITION": 10,
            "TANGENT": 12,
            "TEXCOORD_0": 13
          },
          "indices": 14,
          "material": 1,
          "mode": 4
        }
      ]
    },
    {
      "name": "group_1_grass_02_0",
      "primitives": [
        {
          "attributes": {
            "NORMAL": 16,
            "POSITION": 15,
            "TANGENT": 17,
            "TEXCOORD_0": 18
          },
          "indices": 19,
          "material": 0,
          "mode": 4
        }
      ]
    },
    {
      "name": "group_0_grass_01_0",
      "primitives": [
        {
          "attributes": {
            "NORMAL": 21,
            "POSITION": 20,
            "TANGENT": 22,
            "TEXCOORD_0": 23
          },
          "indices": 24,
          "material": 1,
          "mode": 4
        }
      ]
    }
  ],
  "nodes": [
    {
      "children": [
        1
      ],
      "name": "RootNode (gltf orientation matrix)",
      "rotation": [
        -0.70710678118654746,
        -0,
        -0,
        0.70710678118654757
      ]
    },
    {
      "children": [
        2
      ],
      "name": "RootNode (model correction matrix)"
    },
    {
      "children": [
        3
      ],
      "matrix": [
        1,
        0,
        0,
        0,
        0,
        0,
        1,
        0,
        0,
        -1,
        0,
        0,
        0,
        0,
        0,
        1
      ],
      "name": "grass low.fbx"
    },
    {
      "children": [
        4,
        15,
        18
      ],
      "name": "RootNode"
    },
    {
      "children": [
        5,
        7,
        9,
        11,
        13
      ],
      "matrix": [
        2.5399999618530273,
        0,
        0,
        0,
        0,
        -4.1381851944032109e-07,
        -2.5399999618529936,
        0,
        0,
        2.5399999618529936,
        -4.1381851944032109e-07,
        0,
        0,
        0,
        0,
        1
      ],
      "name": "SketchUp"
    },
    {
      "children": [
        6
      ],
      "matrix": [
        1,
        0,
        0,
        0,
        0,
        1,
        0,
        0,
        0,
        0,
        1,
        0,
        -18.022918701171875,
        -24.941608428955078,
        0,
        1
      ],
      "name": "group_4"
    },
    {
      "mesh": 0,
      "name": "group_4_grass_02_0"
    },
    {
      "children": [
        8
      ],
      "matrix": [
        1,
        0,
        0,
        0,
        0,
        1,
        0,
        0,
        0,
        0,
        1,
        0,
        -1.5145038366317749,
        -40.650318145751953,
        8.4703294725430034e-22,
        1
      ],
      "name": "group_3"
    },
    {
      "mesh": 1,
      "name": "group_3_grass_02_0"
    },
    {
      "children": [
        10
      ],
      "matrix": [
        1,
        0,
        0,
        0,
        0,
        1,
        0,
        0,
        0,
        0,
        1,
        0,
        -32.184989929199219,
        -31.057319641113281,
        1.0658139342335608e-14,
        1
      ],
      "name": "group_2"
    },
    {
      "mesh": 2,
      "name": "group_2_grass_01_0"
    },
    {
      "children": [
        12
      ],
      "matrix": [
        1,
        0,
        0,
        0,
        0,
        1,
        0,
        0,
        0,
        0,
        1,
        0,
        -22.304929733276367,
        -2.2817471027374268,
        -3.7708446526960385e-14,
        1
      ],
      "name": "group_1"
    },
    {
      "mesh": 3,
      "name": "group_1_grass_02_0"
    },
    {
      "children": [
        14
      ],
      "matrix": [
        1,
        0,
        0,
        0,
        0,
        1,
        0,
        0,
        0,
        0,
        1,
        0,
        0,
        -17.842109680175781,
        -9.4471515842391857e-15,
        1
      ],
      "name": "group_0"
    },
    {
      "mesh": 4,
      "name": "group_0_grass_01_0"
    },
    {
      "children": [
        16
      ],
      "matrix": [
        -29.08647719990347,
        -5.5189064575668629,
        -95.517119101714371,
        0,
        56.639309131094492,
        79.467234285632031,
        -21.839123978419661,
        0,
        77.110087759933748,
        -60.452463565620441,
        -19.988346967737169,
        0,
        407.62454223632812,
        590.38623046875,
        -100.54539489746094,
        1
      ],
      "name": "Lamp"
    },
    {
      "children": [
        17
      ],
      "matrix": [
        1,
        0,
        0,
        0,
        0,
        2.2204460492503131e-16,
        1,
        0,
        0,
        -1,
        2.2204460492503131e-16,
        0,
        0,
        0,
        0,
        1
      ],
      "name": ""
    },
    {
      "name": ""
    },
    {
      "children": [
        19
      ],
      "matrix": [
        -65.155832803290963,
        -44.527135765708579,
        -61.417030473735487,
        0,
        -32.40134137821245,
        89.539574512336159,
        -30.542088974418615,
        0,
        68.592054721299746,
        -1.0718647115348782e-05,
        -72.767633623962695,
        0,
        748.1131591796875,
        534.36651611328125,
        650.76397705078125,
        1
      ],
      "name": "Camera"
    },
    {
      "name": ""
    }
  ],
  "samplers": [
    {
      "magFilter": 9729,
      "minFilter": 9987,
      "wrapS": 10497,
      "wrapT": 10497
    }
  ],
  "scene": 0,
  "scenes": [
    {
      "name": "OSG_Scene",
      "nodes": [
        0
      ]
    }
  ],
  "textures": [
    {
      "sampler": 0,
      "source": 0
    },
    {
      "sampler": 0,
      "source": 1
    }
  ]
}

