{
  "accessors": [
    {
      "bufferView": 2,
      "componentType": 5126,
      "count": 7420,
      "max": [
        13.500515937805176,
        14.368931770324707,
        51.494419097900391
      ],
      "min": [
        -15.147106170654297,
        -12.559782028198242,
        12.436807632446289
      ],
      "type": "VEC3"
    },
    {
      "bufferView": 2,
      "byteOffset": 89040,
      "componentType": 5126,
      "count": 7420,
      "max": [
        0.99992561340332031,
        0.99944281578063965,
        0.99971097707748413
      ],
      "min": [
        -0.99987161159515381,
        -0.99924653768539429,
        -0.61547636985778809
      ],
      "type": "VEC3"
    },
    {
      "bufferView": 3,
      "componentType": 5126,
      "count": 7420,
      "max": [
        0.99984407424926758,
        0.99972754716873169,
        0.97916519641876221,
        1
      ],
      "min": [
        -0.99917244911193848,
        -0.99989467859268188,
        -0.99399495124816895,
        1
      ],
      "type": "VEC4"
    },
    {
      "bufferView": 1,
      "componentType": 5126,
      "count": 7420,
      "max": [
        0.99229997396469116,
        0.99839997291564941
      ],
      "min": [
        -0.00839999970048666,
        0.0015999999595806003
      ],
      "type": "VEC2"
    },
    {
      "bufferView": 0,
      "componentType": 5125,
      "count": 11130,
      "max": [
        7419
      ],
      "min": [
        0
      ],
      "type": "SCALAR"
    },
    {
      "bufferView": 2,
      "byteOffset": 178080,
      "componentType": 5126,
      "count": 33332,
      "max": [
        11.932180404663086,
        13.214508056640625,
        50.168193817138672
      ],
      "min": [
        -13.951598167419434,
        -11.191515922546387,
        -4.5000000682193786e-05
      ],
      "type": "VEC3"
    },
    {
      "bufferView": 2,
      "byteOffset": 578064,
      "componentType": 5126,
      "count": 33332,
      "max": [
        0.9999697208404541,
        0.99999833106994629,
        0.99999666213989258
      ],
      "min": [
        -0.99996829032897949,
        -0.99999403953552246,
        -0.99999868869781494
      ],
      "type": "VEC3"
    },
    {
      "bufferView": 3,
      "byteOffset": 118720,
      "componentType": 5126,
      "count": 33332,
      "max": [
        0.99997532367706299,
        0.9999968409538269,
        0.99999934434890747,
        1
      ],
      "min": [
        -0.99997544288635254,
        -0.99999570846557617,
        -0.99531114101409912,
        1
      ],
      "type": "VEC4"
    },
    {
      "bufferView": 1,
      "byteOffset": 59360,
      "componentType": 5126,
      "count": 33332,
      "max": [
        19.403099060058594,
        18.648500442504883
      ],
      "min": [
        -18.403099060058594,
        -17.648500442504883
      ],
      "type": "VEC2"
    },
    {
      "bufferView": 0,
      "byteOffset": 44520,
      "componentType": 5125,
      "count": 113040,
      "max": [
        33331
      ],
      "min": [
        0
      ],
      "type": "SCALAR"
    },
    {
      "bufferView": 2,
      "byteOffset": 978048,
      "componentType": 5126,
      "count": 7420,
      "max": [
        13.500515937805176,
        14.368931770324707,
        51.494419097900391
      ],
      "min": [
        -15.147106170654297,
        -12.559782028198242,
        12.436807632446289
      ],
      "type": "VEC3"
    },
    {
      "bufferView": 2,
      "byteOffset": 1067088,
      "componentType": 5126,
      "count": 7420,
      "max": [
        0.99987161159515381,
        0.99924653768539429,
        0.61547636985778809
      ],
      "min": [
        -0.99992561340332031,
        -0.99944281578063965,
        -0.99971097707748413
      ],
      "type": "VEC3"
    },
    {
      "bufferView": 3,
      "byteOffset": 652032,
      "componentType": 5126,
      "count": 7420,
      "max": [
        0.99984407424926758,
        0.99972754716873169,
        0.97916519641876221,
        -1
      ],
      "min": [
        -0.99917244911193848,
        -0.99989467859268188,
        -0.99399495124816895,
        -1
      ],
      "type": "VEC4"
    },
    {
      "bufferView": 1,
      "byteOffset": 326016,
      "componentType": 5126,
      "count": 7420,
      "max": [
        0.99229997396469116,
        0.99839997291564941
      ],
      "min": [
        -0.00839999970048666,
        0.0015999999595806003
      ],
      "type": "VEC2"
    },
    {
      "bufferView": 0,
      "byteOffset": 496680,
      "componentType": 5125,
      "count": 11130,
      "max": [
        7419
      ],
      "min": [
        0
      ],
      "type": "SCALAR"
    }
  ],
  "asset": {
    "extras": {
      "author": "FelixBDesign (https://sketchfab.com/felix95b)",
      "license": "CC-BY-4.0 (http://creativecommons.org/licenses/by/4.0/)",
      "source": "https://sketchfab.com/models/8ffb084d2bfa4cb18f9306865b4a5fd2",
      "title": "Maple Tree"
    },
    "generator": "Sketchfab-3.20.7",
    "version": "2.0"
  },
  "bufferViews": [
    {
      "buffer": 0,
      "byteLength": 541200,
      "byteOffset": 0,
      "name": "floatBufferViews",
      "target": 34963
    },
    {
      "buffer": 0,
      "byteLength": 385376,
      "byteOffset": 541200,
      "byteStride": 8,
      "name": "floatBufferViews",
      "target": 34962
    },
    {
      "buffer": 0,
      "byteLength": 1156128,
      "byteOffset": 926576,
      "byteStride": 12,
      "name": "floatBufferViews",
      "target": 34962
    },
    {
      "buffer": 0,
      "byteLength": 770752,
      "byteOffset": 2082704,
      "byteStride": 16,
      "name": "floatBufferViews",
      "target": 34962
    }
  ],
  "buffers": [
    {
      "byteLength": 2853456,
      "uri": "scene.bin"
    }
  ],
  "images": [
    {
      "uri": "textures/None_maple_leaf.png.001_baseColor.png"
    },
    {
      "uri": "textures/None.001_baseColor.png"
    },
    {
      "uri": "textures/None_baseColor.png"
    }
  ],
  "materials": [
    {
      "alphaMode": "BLEND",
      "doubleSided": true,
      "emissiveFactor": [
        0,
        0,
        0
      ],
      "name": "None",
      "pbrMetallicRoughness": {
        "baseColorFactor": [
          1,
          1,
          1,
          1
        ],
        "baseColorTexture": {
          "index": 2,
          "texCoord": 0
        },
        "metallicFactor": 0,
        "roughnessFactor": 1
      }
    },
    {
      "alphaCutoff": 0,
      "alphaMode": "MASK",
      "doubleSided": true,
      "emissiveFactor": [
        0,
        0,
        0
      ],
      "name": "None.001",
      "pbrMetallicRoughness": {
        "baseColorFactor": [
          1,
          1,
          1,
          1
        ],
        "baseColorTexture": {
          "index": 1,
          "texCoord": 0
        },
        "metallicFactor": 0,
        "roughnessFactor": 0.59999999999999998
      }
    },
    {
      "alphaMode": "BLEND",
      "doubleSided": true,
      "emissiveFactor": [
        0,
        0,
        0
      ],
      "name": "None_maple_leaf.png.001",
      "pbrMetallicRoughness": {
        "baseColorFactor": [
          1,
          1,
          1,
          1
        ],
        "baseColorTexture": {
          "index": 0,
          "texCoord": 0
        },
        "metallicFactor": 0,
        "roughnessFactor": 1
      }
    }
  ],
  "meshes": [
    {
      "primitives": [
        {
          "attributes": {
            "NORMAL": 1,
            "POSITION": 0,
            "TANGENT": 2,
            "TEXCOORD_0": 3
          },
          "indices": 4,
          "material": 0,
          "mode": 4
        }
      ]
    },
    {
      "primitives": [
        {
          "attributes": {
            "NORMAL": 6,
            "POSITION": 5,
            "TANGENT": 7,
            "TEXCOORD_0": 8
          },
          "indices": 9,
          "material": 1,
          "mode": 4
        }
      ]
    },
    {
      "primitives": [
        {
          "attributes": {
            "NORMAL": 11,
            "POSITION": 10,
            "TANGENT": 12,
            "TEXCOORD_0": 13
          },
          "indices": 14,
          "material": 2,
          "mode": 4
        }
      ]
    }
  ],
  "nodes": [
    {
      "children": [
        1
      ],
      "name": "RootNode (gltf orientation matrix)",
      "rotation": [
        -0.70710678118654746,
        -0,
        -0,
        0.70710678118654757
      ]
    },
    {
      "children": [
        2
      ],
      "name": "RootNode (model correction matrix)"
    },
    {
      "children": [
        3,
        4,
        5
      ],
      "name": "MapleTree.obj.cleaner.materialmerger.gles"
    },
    {
      "mesh": 0,
      "name": ""
    },
    {
      "mesh": 1,
      "name": ""
    },
    {
      "mesh": 2,
      "name": ""
    }
  ],
  "samplers": [
    {
      "magFilter": 9729,
      "minFilter": 9987,
      "wrapS": 10497,
      "wrapT": 10497
    }
  ],
  "scene": 0,
  "scenes": [
    {
      "name": "OSG_Scene",
      "nodes": [
        0
      ]
    }
  ],
  "textures": [
    {
      "sampler": 0,
      "source": 0
    },
    {
      "sampler": 0,
      "source": 1
    },
    {
      "sampler": 0,
      "source": 2
    }
  ]
}

