{
  "accessors": [
    {
      "bufferView": 2,
      "componentType": 5126,
      "count": 6912,
      "max": [
        2.8112857341766357,
        0.5000004768371582,
        3.5265982151031494
      ],
      "min": [
        -7.6959676742553711,
        -0.50000119209289551,
        -6.8453102111816406
      ],
      "type": "VEC3"
    },
    {
      "bufferView": 2,
      "byteOffset": 82944,
      "componentType": 5126,
      "count": 6912,
      "max": [
        1,
        5.4575787089561345e-07,
        1
      ],
      "min": [
        -1.4186794032866601e-06,
        -1.0915146049228497e-06,
        -1.0915149459833628e-06
      ],
      "type": "VEC3"
    },
    {
      "bufferView": 3,
      "componentType": 5126,
      "count": 6912,
      "max": [
        1,
        2.9785074688766511e-13,
        1.4186794032866601e-06,
        1
      ],
      "min": [
        -1.0915150596702006e-06,
        -2.7287885018267843e-07,
        -1,
        1
      ],
      "type": "VEC4"
    },
    {
      "bufferView": 1,
      "componentType": 5126,
      "count": 6912,
      "max": [
        1,
        1
      ],
      "min": [
        0,
        0
      ],
      "type": "VEC2"
    },
    {
      "bufferView": 0,
      "componentType": 5125,
      "count": 10368,
      "max": [
        6911
      ],
      "min": [
        0
      ],
      "type": "SCALAR"
    }
  ],
  "asset": {
    "extras": {
      "author": "Somersby (https://sketchfab.com/Somersby)",
      "license": "CC-BY-NC-4.0 (http://creativecommons.org/licenses/by-nc/4.0/)",
      "source": "https://sketchfab.com/3d-models/yet-another-grass-model-95dc9c01a9ed45a99a3303b95c9f3f91",
      "title": "Yet another grass model"
    },
    "generator": "Sketchfab-4.54.1",
    "version": "2.0"
  },
  "bufferViews": [
    {
      "buffer": 0,
      "byteLength": 41472,
      "byteOffset": 0,
      "name": "floatBufferViews",
      "target": 34963
    },
    {
      "buffer": 0,
      "byteLength": 55296,
      "byteOffset": 41472,
      "byteStride": 8,
      "name": "floatBufferViews",
      "target": 34962
    },
    {
      "buffer": 0,
      "byteLength": 165888,
      "byteOffset": 96768,
      "byteStride": 12,
      "name": "floatBufferViews",
      "target": 34962
    },
    {
      "buffer": 0,
      "byteLength": 110592,
      "byteOffset": 262656,
      "byteStride": 16,
      "name": "floatBufferViews",
      "target": 34962
    }
  ],
  "buffers": [
    {
      "byteLength": 373248,
      "uri": "scene.bin"
    }
  ],
  "images": [
    {
      "uri": "textures/78f67a44e13965ae3008bbb284401925_baseColor.png"
    }
  ],
  "materials": [
    {
      "alphaCutoff": 1,
      "alphaMode": "MASK",
      "doubleSided": true,
      "name": "78f67a44e13965ae3008bbb284401925",
      "pbrMetallicRoughness": {
        "baseColorFactor": [
          1,
          1,
          1,
          1
        ],
        "baseColorTexture": {
          "index": 0,
          "texCoord": 0
        },
        "metallicFactor": 0,
        "roughnessFactor": 1
      }
    }
  ],
  "meshes": [
    {
      "name": "78f67a44e13965ae3008bbb284401925.000_78f67a44e13965ae3008bbb284401925_0",
      "primitives": [
        {
          "attributes": {
            "NORMAL": 1,
            "POSITION": 0,
            "TANGENT": 2,
            "TEXCOORD_0": 3
          },
          "indices": 4,
          "material": 0,
          "mode": 4
        }
      ]
    }
  ],
  "nodes": [
    {
      "children": [
        1
      ],
      "name": "RootNode (gltf orientation matrix)",
      "rotation": [
        -0.70710678118654746,
        -0,
        -0,
        0.70710678118654757
      ]
    },
    {
      "children": [
        2
      ],
      "name": "RootNode (model correction matrix)"
    },
    {
      "children": [
        3
      ],
      "matrix": [
        1,
        0,
        0,
        0,
        0,
        0,
        1,
        0,
        0,
        -1,
        0,
        0,
        0,
        0,
        0,
        1
      ],
      "name": "FieldCC.fbx"
    },
    {
      "children": [
        4
      ],
      "name": "RootNode"
    },
    {
      "children": [
        5
      ],
      "matrix": [
        2.8581732474806005e-05,
        -3.6427399152168742e-22,
        146.79341125488,
        0,
        1.7504953418992758e-06,
        146.79341125488278,
        -3.4083402700436331e-13,
        0,
        -146.79341125488,
        1.750495341899309e-06,
        2.8581732474806005e-05,
        0,
        -217.14456176757812,
        51.469402313232422,
        335.66824340820312,
        1
      ],
      "name": "78f67a44e13965ae3008bbb284401925.000"
    },
    {
      "mesh": 0,
      "name": "78f67a44e13965ae3008bbb284401925.000_78f67a44e13965ae3008bbb284401925_0"
    }
  ],
  "samplers": [
    {
      "magFilter": 9729,
      "minFilter": 9987,
      "wrapS": 10497,
      "wrapT": 10497
    }
  ],
  "scene": 0,
  "scenes": [
    {
      "name": "OSG_Scene",
      "nodes": [
        0
      ]
    }
  ],
  "textures": [
    {
      "sampler": 0,
      "source": 0
    }
  ]
}

