{
  "accessors": [
    {
      "bufferView": 2,
      "componentType": 5126,
      "count": 37233,
      "max": [
        1.437190055847168,
        1.5117000341415405,
        4.98760986328125
      ],
      "min": [
        -1.4402899742126465,
        -1.4922000169754028,
        0
      ],
      "type": "VEC3"
    },
    {
      "bufferView": 2,
      "byteOffset": 446796,
      "componentType": 5126,
      "count": 37233,
      "max": [
        0.99999552965164185,
        1,
        1
      ],
      "min": [
        -0.99999278783798218,
        -0.99999767541885376,
        -0.99999994039535522
      ],
      "type": "VEC3"
    },
    {
      "bufferView": 3,
      "componentType": 5126,
      "count": 37233,
      "max": [
        0.99996715784072876,
        0.99999576807022095,
        0.99999672174453735,
        -1
      ],
      "min": [
        -0.99975425004959106,
        -0.99778938293457031,
        -0.30171075463294983,
        -1
      ],
      "type": "VEC4"
    },
    {
      "bufferView": 1,
      "componentType": 5126,
      "count": 37233,
      "max": [
        1,
        1
      ],
      "min": [
        0,
        0
      ],
      "type": "VEC2"
    },
    {
      "bufferView": 0,
      "componentType": 5125,
      "count": 190464,
      "max": [
        37232
      ],
      "min": [
        0
      ],
      "type": "SCALAR"
    },
    {
      "bufferView": 2,
      "byteOffset": 893592,
      "componentType": 5126,
      "count": 65532,
      "max": [
        1.5842499732971191,
        1.6570700407028198,
        2.4008500576019287
      ],
      "min": [
        -1.502500057220459,
        -1.6221699714660645,
        0.072039999067783356
      ],
      "type": "VEC3"
    },
    {
      "bufferView": 2,
      "byteOffset": 1679976,
      "componentType": 5126,
      "count": 65532,
      "max": [
        0.99997794628143311,
        0.9999312162399292,
        0.99999237060546875
      ],
      "min": [
        -0.99964809417724609,
        -0.99999701976776123,
        -0.97488439083099365
      ],
      "type": "VEC3"
    },
    {
      "bufferView": 3,
      "byteOffset": 595728,
      "componentType": 5126,
      "count": 65532,
      "max": [
        0.99976378679275513,
        0.99983268976211548,
        0.99998646974563599,
        1
      ],
      "min": [
        -0.99911940097808838,
        -0.99895042181015015,
        -0.99997854232788086,
        1
      ],
      "type": "VEC4"
    },
    {
      "bufferView": 1,
      "byteOffset": 297864,
      "componentType": 5126,
      "count": 65532,
      "max": [
        0.50999999046325684,
        1
      ],
      "min": [
        0.49000000953674316,
        0
      ],
      "type": "VEC2"
    },
    {
      "bufferView": 0,
      "byteOffset": 761856,
      "componentType": 5125,
      "count": 98298,
      "max": [
        65531
      ],
      "min": [
        0
      ],
      "type": "SCALAR"
    },
    {
      "bufferView": 2,
      "byteOffset": 2466360,
      "componentType": 5126,
      "count": 65532,
      "max": [
        1.4274899959564209,
        1.413159966468811,
        4.4442000389099121
      ],
      "min": [
        -1.5881600379943848,
        -1.6310299634933472,
        1.7576700448989868
      ],
      "type": "VEC3"
    },
    {
      "bufferView": 2,
      "byteOffset": 3252744,
      "componentType": 5126,
      "count": 65532,
      "max": [
        0.99995356798171997,
        0.999916672706604,
        0.99996381998062134
      ],
      "min": [
        -0.99994653463363647,
        -0.9999314546585083,
        -0.92997509241104126
      ],
      "type": "VEC3"
    },
    {
      "bufferView": 3,
      "byteOffset": 1644240,
      "componentType": 5126,
      "count": 65532,
      "max": [
        0.999919593334198,
        0.99993216991424561,
        0.99997073411941528,
        1
      ],
      "min": [
        -0.99982136487960815,
        -0.99981230497360229,
        -0.9999346137046814,
        1
      ],
      "type": "VEC4"
    },
    {
      "bufferView": 1,
      "byteOffset": 822120,
      "componentType": 5126,
      "count": 65532,
      "max": [
        0.50999999046325684,
        1
      ],
      "min": [
        0.49000000953674316,
        0
      ],
      "type": "VEC2"
    },
    {
      "bufferView": 0,
      "byteOffset": 1155048,
      "componentType": 5125,
      "count": 98298,
      "max": [
        65531
      ],
      "min": [
        0
      ],
      "type": "SCALAR"
    },
    {
      "bufferView": 2,
      "byteOffset": 4039128,
      "componentType": 5126,
      "count": 15652,
      "max": [
        0.675059974193573,
        0.80035001039505005,
        5.1249899864196777
      ],
      "min": [
        -0.7440599799156189,
        -0.76130998134613037,
        3.7049698829650879
      ],
      "type": "VEC3"
    },
    {
      "bufferView": 2,
      "byteOffset": 4226952,
      "componentType": 5126,
      "count": 15652,
      "max": [
        0.99998378753662109,
        0.99937021732330322,
        0.99985939264297485
      ],
      "min": [
        -0.99926537275314331,
        -0.99976664781570435,
        -0.79433667659759521
      ],
      "type": "VEC3"
    },
    {
      "bufferView": 3,
      "byteOffset": 2692752,
      "componentType": 5126,
      "count": 15652,
      "max": [
        0.99899476766586304,
        0.99888354539871216,
        0.98885786533355713,
        1
      ],
      "min": [
        -0.99869042634963989,
        -0.99996912479400635,
        -0.98651683330535889,
        1
      ],
      "type": "VEC4"
    },
    {
      "bufferView": 1,
      "byteOffset": 1346376,
      "componentType": 5126,
      "count": 15652,
      "max": [
        0.50999999046325684,
        1
      ],
      "min": [
        0.49000000953674316,
        0
      ],
      "type": "VEC2"
    },
    {
      "bufferView": 0,
      "byteOffset": 1548240,
      "componentType": 5125,
      "count": 23478,
      "max": [
        15651
      ],
      "min": [
        0
      ],
      "type": "SCALAR"
    }
  ],
  "asset": {
    "extras": {
      "author": "mjones129 (https://sketchfab.com/271films)",
      "license": "CC-BY-4.0 (http://creativecommons.org/licenses/by/4.0/)",
      "source": "https://sketchfab.com/models/805d8d08ad8b4af29e6c3c5448f658a3",
      "title": "Small Pine Tree"
    },
    "generator": "Sketchfab-3.41.2",
    "version": "2.0"
  },
  "bufferViews": [
    {
      "buffer": 0,
      "byteLength": 1642152,
      "byteOffset": 0,
      "name": "floatBufferViews",
      "target": 34963
    },
    {
      "buffer": 0,
      "byteLength": 1471592,
      "byteOffset": 1642152,
      "byteStride": 8,
      "name": "floatBufferViews",
      "target": 34962
    },
    {
      "buffer": 0,
      "byteLength": 4414776,
      "byteOffset": 3113744,
      "byteStride": 12,
      "name": "floatBufferViews",
      "target": 34962
    },
    {
      "buffer": 0,
      "byteLength": 2943184,
      "byteOffset": 7528520,
      "byteStride": 16,
      "name": "floatBufferViews",
      "target": 34962
    }
  ],
  "buffers": [
    {
      "byteLength": 10471704,
      "uri": "scene.bin"
    }
  ],
  "extensionsRequired": [
    "KHR_materials_pbrSpecularGlossiness"
  ],
  "extensionsUsed": [
    "KHR_materials_pbrSpecularGlossiness"
  ],
  "materials": [
    {
      "doubleSided": true,
      "extensions": {
        "KHR_materials_pbrSpecularGlossiness": {
          "diffuseFactor": [
            0.038587538800000001,
            0.0340126179,
            0.0015593225999999999,
            1
          ],
          "glossinessFactor": 1,
          "specularFactor": [
            0,
            0,
            0
          ]
        }
      },
      "name": "Wood"
    },
    {
      "doubleSided": true,
      "extensions": {
        "KHR_materials_pbrSpecularGlossiness": {
          "diffuseFactor": [
            0.0064003343000000002,
            0.1196299186,
            0.0033992067999999999,
            1
          ],
          "glossinessFactor": 1,
          "specularFactor": [
            0.51391006100000003,
            0.51391006100000003,
            0.51391006100000003
          ]
        }
      },
      "name": "Leaves"
    }
  ],
  "meshes": [
    {
      "name": "tree_0",
      "primitives": [
        {
          "attributes": {
            "NORMAL": 1,
            "POSITION": 0,
            "TANGENT": 2,
            "TEXCOORD_0": 3
          },
          "indices": 4,
          "material": 0,
          "mode": 4
        }
      ]
    },
    {
      "name": "leaves_0",
      "primitives": [
        {
          "attributes": {
            "NORMAL": 6,
            "POSITION": 5,
            "TANGENT": 7,
            "TEXCOORD_0": 8
          },
          "indices": 9,
          "material": 1,
          "mode": 4
        }
      ]
    },
    {
      "name": "leaves_0",
      "primitives": [
        {
          "attributes": {
            "NORMAL": 11,
            "POSITION": 10,
            "TANGENT": 12,
            "TEXCOORD_0": 13
          },
          "indices": 14,
          "material": 1,
          "mode": 4
        }
      ]
    },
    {
      "name": "leaves_0",
      "primitives": [
        {
          "attributes": {
            "NORMAL": 16,
            "POSITION": 15,
            "TANGENT": 17,
            "TEXCOORD_0": 18
          },
          "indices": 19,
          "material": 1,
          "mode": 4
        }
      ]
    }
  ],
  "nodes": [
    {
      "children": [
        1
      ],
      "name": "RootNode (gltf orientation matrix)",
      "rotation": [
        -0.70710678118654746,
        -0,
        -0,
        0.70710678118654757
      ]
    },
    {
      "children": [
        2
      ],
      "name": "RootNode (model correction matrix)"
    },
    {
      "children": [
        3
      ],
      "name": "Root"
    },
    {
      "children": [
        4,
        5
      ],
      "name": "tree"
    },
    {
      "mesh": 0,
      "name": "tree_0"
    },
    {
      "children": [
        6,
        7,
        8
      ],
      "name": "leaves"
    },
    {
      "mesh": 1,
      "name": "leaves_0"
    },
    {
      "mesh": 2,
      "name": "leaves_0"
    },
    {
      "mesh": 3,
      "name": "leaves_0"
    }
  ],
  "scene": 0,
  "scenes": [
    {
      "name": "OSG_Scene",
      "nodes": [
        0
      ]
    }
  ]
}

